<svg width="28" height="28" viewBox="0 0 28 28" fill="none" xmlns="http://www.w3.org/2000/svg">
<circle cx="14" cy="14" r="14" transform="rotate(-90 14 14)" fill="#EFEFEF"/>
<path d="M8.07846 16.5415L13.1956 9.8797C13.3366 9.69728 13.5167 9.54976 13.7223 9.4483C13.9279 9.34685 14.1536 9.29412 14.3823 9.29412C14.611 9.29412 14.8367 9.34685 15.0423 9.4483C15.2479 9.54976 15.428 9.69728 15.569 9.8797L20.6861 16.5415C20.8578 16.7669 20.9638 17.0364 20.9922 17.3196C21.0206 17.6028 20.9703 17.8884 20.8468 18.1441C20.7234 18.3998 20.5318 18.6155 20.2937 18.7668C20.0556 18.918 19.7805 18.9988 19.4995 19L9.26514 19C8.98409 18.9988 8.70898 18.918 8.47088 18.7668C8.23279 18.6155 8.04121 18.3998 7.91777 18.1441C7.79433 17.8884 7.74396 17.6028 7.77236 17.3196C7.80076 17.0364 7.90678 16.7669 8.07846 16.5415Z" fill="black" fill-opacity="0.19"/>
<path d="M13.8602 9.33799C13.6238 9.2795 13.3771 9.2795 13.1407 9.33799L12.371 9.33799L12.371 9.81492C12.3522 9.83655 12.3321 9.8569 12.3133 9.87979L7.19659 16.5416C7.02493 16.7669 6.91892 17.0364 6.89052 17.3196C6.86213 17.6028 6.91249 17.8884 7.03592 18.1441C7.15934 18.3999 7.35091 18.6155 7.58898 18.7668C7.82705 18.918 8.10214 18.9988 8.38316 19L18.6178 19C18.8988 18.9988 19.1739 18.918 19.4119 18.7668C19.65 18.6155 19.8416 18.3999 19.965 18.1441C20.0884 17.8884 20.1388 17.6028 20.1104 17.3196C20.082 17.0364 19.976 16.7669 19.8043 16.5416L14.6877 9.87979C14.4813 9.61044 14.191 9.4199 13.864 9.33927L13.8602 9.33799Z" fill="#AF0000"/>
<path d="M6.31378 16.5415L11.4317 9.8797C11.5726 9.69728 11.7527 9.54976 11.9583 9.4483C12.1639 9.34685 12.3896 9.29412 12.6183 9.29412C12.847 9.29412 13.0726 9.34685 13.2782 9.4483C13.4838 9.54976 13.6639 9.69728 13.8048 9.8797L18.9215 16.5415C19.0932 16.7669 19.1992 17.0364 19.2276 17.3196C19.256 17.6028 19.2056 17.8884 19.0822 18.1441C18.9588 18.3998 18.7672 18.6155 18.5291 18.7668C18.2911 18.918 18.016 18.9988 17.7349 19L7.50034 19C7.21933 18.9988 6.94424 18.918 6.70617 18.7668C6.4681 18.6155 6.27653 18.3998 6.15311 18.1441C6.02968 17.8884 5.97932 17.6028 6.00771 17.3196C6.0361 17.0364 6.14212 16.7669 6.31378 16.5415Z" fill="#F60014"/>
<path d="M11.2941 14.7711C11.2947 15.0186 11.2026 15.2585 11.0335 15.4498L9.87125 16.7728C9.78042 16.8947 9.66342 16.9977 9.52762 17.0755C9.39182 17.1533 9.24017 17.2041 9.08219 17.2248C8.92421 17.2455 8.76333 17.2356 8.60967 17.1957C8.45601 17.1559 8.3129 17.0869 8.18934 16.9931C8.06579 16.8994 7.96446 16.7829 7.89174 16.651C7.81902 16.5191 7.77647 16.3746 7.76678 16.2267C7.75709 16.0788 7.78047 15.9306 7.83544 15.7914C7.89041 15.6523 7.97578 15.5253 8.08619 15.4183L9.24848 14.0938C9.39985 13.9245 9.6036 13.8024 9.83213 13.7442C10.0607 13.686 10.3029 13.6944 10.5261 13.7683C10.7493 13.8422 10.9427 13.978 11.0801 14.1574C11.2174 14.3367 11.2921 14.551 11.2941 14.7711Z" fill="black" fill-opacity="0.11"/>
</svg>
