<svg width="28" height="28" viewBox="0 0 28 28" fill="none" xmlns="http://www.w3.org/2000/svg">
<circle cx="14" cy="14" r="14" transform="rotate(90 14 14)" fill="#EFEFEF"/>
<path d="M19.9215 11.4585L14.8044 18.1203C14.6634 18.3027 14.4833 18.4502 14.2777 18.5517C14.0721 18.6532 13.8464 18.7059 13.6177 18.7059C13.389 18.7059 13.1633 18.6532 12.9577 18.5517C12.7521 18.4502 12.572 18.3027 12.431 18.1203L7.31387 11.4585C7.14219 11.2331 7.03617 10.9636 7.00777 10.6804C6.97938 10.3972 7.02975 10.1116 7.15318 9.85588C7.27662 9.60015 7.4682 9.38449 7.7063 9.23324C7.94439 9.082 8.2195 9.00121 8.50055 9L18.7349 9C19.0159 9.00121 19.291 9.082 19.5291 9.23324C19.7672 9.38449 19.9588 9.60015 20.0822 9.85588C20.2057 10.1116 20.256 10.3972 20.2276 10.6804C20.1992 10.9636 20.0932 11.2331 19.9215 11.4585Z" fill="black" fill-opacity="0.19"/>
<path d="M14.1398 18.662C14.3762 18.7205 14.6229 18.7205 14.8593 18.662L15.629 18.662L15.629 18.1851C15.6478 18.1635 15.6679 18.1431 15.6867 18.1202L20.8034 11.4584C20.9751 11.2331 21.0811 10.9636 21.1095 10.6804C21.1379 10.3972 21.0875 10.1116 20.9641 9.85587C20.8407 9.60015 20.6491 9.38448 20.411 9.23324C20.1729 9.082 19.8979 9.00121 19.6168 9L9.38224 9C9.10122 9.00121 8.82614 9.082 8.58807 9.23324C8.34999 9.38448 8.15843 9.60015 8.03501 9.85587C7.91158 10.1116 7.86122 10.3972 7.88961 10.6804C7.918 10.9636 8.02402 11.2331 8.19567 11.4584L13.3123 18.1202C13.5187 18.3896 13.809 18.5801 14.136 18.6607L14.1398 18.662Z" fill="#AF0000"/>
<path d="M21.6862 11.4585L16.5683 18.1203C16.4274 18.3027 16.2473 18.4502 16.0417 18.5517C15.8361 18.6532 15.6104 18.7059 15.3817 18.7059C15.153 18.7059 14.9274 18.6532 14.7218 18.5517C14.5162 18.4502 14.3361 18.3027 14.1952 18.1203L9.07849 11.4585C8.90683 11.2331 8.80081 10.9636 8.77242 10.6804C8.74403 10.3972 8.79439 10.1116 8.91782 9.85588C9.04124 9.60015 9.23281 9.38449 9.47088 9.23324C9.70895 9.082 9.98404 9.00121 10.2651 9L20.4997 9C20.7807 9.00121 21.0558 9.082 21.2938 9.23324C21.5319 9.38449 21.7235 9.60015 21.8469 9.85588C21.9703 10.1116 22.0207 10.3972 21.9923 10.6804C21.9639 10.9636 21.8579 11.2331 21.6862 11.4585Z" fill="#F60014"/>
<path d="M16.7059 13.2289C16.7053 12.9814 16.7974 12.7415 16.9665 12.5502L18.1288 11.2272C18.2196 11.1053 18.3366 11.0023 18.4724 10.9245C18.6082 10.8467 18.7598 10.7959 18.9178 10.7752C19.0758 10.7545 19.2367 10.7644 19.3903 10.8043C19.544 10.8441 19.6871 10.9131 19.8107 11.0069C19.9342 11.1006 20.0355 11.2171 20.1083 11.349C20.181 11.4809 20.2235 11.6254 20.2332 11.7733C20.2429 11.9212 20.2195 12.0694 20.1646 12.2086C20.1096 12.3477 20.0242 12.4747 19.9138 12.5817L18.7515 13.9062C18.6001 14.0755 18.3964 14.1976 18.1679 14.2558C17.9393 14.314 17.6971 14.3056 17.4739 14.2317C17.2507 14.1578 17.0573 14.022 16.9199 13.8426C16.7826 13.6633 16.7079 13.449 16.7059 13.2289Z" fill="black" fill-opacity="0.11"/>
</svg>
